<?xml version="1.0" encoding="UTF-8"?>
<svg enable-background="new 0 0 60.123 60.123" version="1.1" viewBox="0 0 60.123 60.123" xml:space="preserve" xmlns="http://www.w3.org/2000/svg" xmlns:cc="http://creativecommons.org/ns#" xmlns:dc="http://purl.org/dc/elements/1.1/" xmlns:rdf="http://www.w3.org/1999/02/22-rdf-syntax-ns#"><defsa/><metadata><rdf:RDF><cc:Work rdf:about=""><dc:format>image/svg+xml</dc:format><dc:type rdf:resource="http://purl.org/dc/dcmitype/StillImage"/></cc:Work></rdf:RDF></metadata>
<path d="m57.124 52.993h-40.204c-1.657 0-3-1.7907-3-4s1.343-4 3-4h40.203c1.657 0 3 1.7907 3 4s-1.342 4-2.999 4z" fill="#666" stroke-width="1.1547"/><path d="m57.124 34.162h-40.204c-1.657 0-3-1.7907-3-4s1.343-4 3-4h40.203c1.657 0 3 1.7907 3 4 1e-3 2.2093-1.342 4-2.999 4z" fill="#666" stroke-width="1.1547"/><path d="m57.124 15.331h-40.204c-1.657 0-3-1.7907-3-4 0-2.2093 1.343-4 3-4h40.203c1.657 0 3 1.7907 3 4 0 2.2093-1.342 4-2.999 4z" fill="#666" stroke-width="1.1547"/><circle cx="4.029" cy="11.463" r="4.029" fill="#666"/><circle cx="4.029" cy="30.062" r="4.029" fill="#666"/><circle cx="4.029" cy="48.661" r="4.029" fill="#666"/>















</svg>
