<?xml version="1.0" encoding="UTF-8"?>
<svg enable-background="new 0 0 342.382 342.382" version="1.1" viewBox="0 0 90.438 342.38" xml:space="preserve" xmlns="http://www.w3.org/2000/svg" xmlns:cc="http://creativecommons.org/ns#" xmlns:dc="http://purl.org/dc/elements/1.1/" xmlns:rdf="http://www.w3.org/1999/02/22-rdf-syntax-ns#"><metadata><rdf:RDF><cc:Work rdf:about=""><dc:format>image/svg+xml</dc:format><dc:type rdf:resource="http://purl.org/dc/dcmitype/StillImage"/><dc:title/></cc:Work></rdf:RDF></metadata>
	<g transform="rotate(90 108.2 108.2)" fill="#666">
			<path d="m45.225 125.97c-24.941 0-45.225 20.284-45.225 45.219 0 24.94 20.284 45.219 45.225 45.219 24.926 0 45.219-20.278 45.219-45.219 0-24.935-20.293-45.219-45.219-45.219z"/>
			<path d="m173.41 125.97c-24.938 0-45.225 20.284-45.225 45.219 0 24.94 20.287 45.219 45.225 45.219 24.936 0 45.226-20.278 45.226-45.219 0-24.935-20.29-45.219-45.226-45.219z"/>
			<path d="m297.16 125.97c-24.932 0-45.222 20.284-45.222 45.219 0 24.94 20.29 45.219 45.222 45.219 24.926 0 45.217-20.278 45.217-45.219 0-24.935-20.291-45.219-45.217-45.219z"/>
	</g>
</svg>
