<?xml version="1.0" encoding="UTF-8"?>
<svg version="1.1" viewBox="0 0 24 24.002" xml:space="preserve" xmlns="http://www.w3.org/2000/svg" xmlns:cc="http://creativecommons.org/ns#" xmlns:dc="http://purl.org/dc/elements/1.1/" xmlns:rdf="http://www.w3.org/1999/02/22-rdf-syntax-ns#"><metadata><rdf:RDF><cc:Work rdf:about=""><dc:format>image/svg+xml</dc:format><dc:type rdf:resource="http://purl.org/dc/dcmitype/StillImage"/><dc:title/></cc:Work></rdf:RDF></metadata>
<g transform="translate(1.6755e-8 -17.754)">
    <path d="m15.969 29.754 6.9295-6.929c1.0964-1.0964 1.0964-2.8739 0-3.9698-1.0953-1.0959-2.8739-1.0959-3.9692 0l-6.9295 6.9301-6.9295-6.9301c-1.0953-1.0959-2.8739-1.0959-3.9692 0-1.0964 1.0964-1.0964 2.8739 0 3.9698l6.929 6.929-6.929 6.929c-1.0964 1.0964-1.0964 2.8739 0 3.9698 0.54738 0.5485 1.2666 0.82191 1.9846 0.82191 0.71749 0 1.4372-0.27341 1.9846-0.82191l6.9295-6.929 6.9295 6.9295c0.54794 0.5485 1.2666 0.82191 1.9846 0.82191 0.71805 0 1.4372-0.27341 1.9846-0.82191 1.0964-1.0964 1.0964-2.8739 0-3.9698z" fill="#99999f" fill-opacity=".94118"/>
</g>















</svg>
