<?xml version="1.0" encoding="UTF-8"?>
<svg version="1.1" viewBox="0 0 14.032 14.032" xmlns="http://www.w3.org/2000/svg" xmlns:cc="http://creativecommons.org/ns#" xmlns:dc="http://purl.org/dc/elements/1.1/" xmlns:rdf="http://www.w3.org/1999/02/22-rdf-syntax-ns#">
<metadata>
<rdf:RDF>
<cc:Work rdf:about="">
<dc:format>image/svg+xml</dc:format>
<dc:type rdf:resource="http://purl.org/dc/dcmitype/StillImage"/>
<dc:title/>
</cc:Work>
</rdf:RDF>
</metadata>
<g transform="translate(-9.235 -1050.3)">
<path d="m23.008 1057.3a6.7568 6.7569 0 1 1-13.514 0 6.7568 6.7569 0 1 1 13.514 0z" fill="none" stroke="#999" stroke-width=".51848"/>
<path d="m16.199 1052.2c-0.98936 0-1.7792 0.2751-2.3819 0.8285s-0.91682 1.32-0.95278 2.2784l1.6363 0.2071c0.0538-1.185 0.59617-1.7606 1.5949-1.7606 0.42275 0 0.76577 0.1082 1.0356 0.3522 0.26985 0.244 0.39353 0.5573 0.39354 0.932-6e-6 0.3486-0.12082 0.6499-0.37283 0.9113-0.13479 0.1394-0.40288 0.3481-0.80779 0.6008-0.36868 0.2265-0.608 0.4852-0.72494 0.8077-0.10816 0.2702-0.1657 0.6852-0.1657 1.2428v0.7456h1.512v-0.4764c-5e-6 -0.5489 0.23644-0.9703 0.70423-1.2841 0.61189-0.4183 1.0296-0.7896 1.2635-1.0771 0.32365-0.4183 0.49709-0.9226 0.4971-1.5327-7e-6 -0.8366-0.33497-1.5277-0.97349-2.0505-0.6119-0.488-1.3671-0.725-2.2577-0.725z" fill="#999"/>
<path transform="matrix(1.7776,0,0,2.452,-5.1,1020.6)" d="m12.576 16.531a0.64357 0.39775 0 1 1-1.2871 0 0.64357 0.39775 0 1 1 1.2871 0z" fill="#999"/>
</g>
</svg>
