<?xml version="1.0" encoding="UTF-8"?>
<svg enable-background="new 0 0 297 297" version="1.1" viewBox="0 0 14 13.341" xml:space="preserve" xmlns="http://www.w3.org/2000/svg" xmlns:cc="http://creativecommons.org/ns#" xmlns:dc="http://purl.org/dc/elements/1.1/" xmlns:rdf="http://www.w3.org/1999/02/22-rdf-syntax-ns#"><metadata><rdf:RDF><cc:Work rdf:about=""><dc:format>image/svg+xml</dc:format><dc:type rdf:resource="http://purl.org/dc/dcmitype/StillImage"/><dc:title/></cc:Work></rdf:RDF></metadata>

	<path d="m3.0001 7.6444 3.3553 3.3558-2.8797 0.57555c-0.043838 9e-3 -0.083906 0.03064-0.11549 0.06222l-0.45912 0.45912-0.99791-0.99838 0.45912-0.45865c0.031111-0.03158 0.052795-0.07212 0.061751-0.11549z" fill="#bdc3c7" stroke-width=".047138"/><path d="m10.855 3.5166c0.13246 0.13246 0.13246 0.34788 0 0.48034l-3.45 3.4505c-0.13246 0.13246-0.34788 0.13246-0.48034 0l-0.35919-0.35919c-0.13246-0.13246-0.13246-0.34788 0-0.48034l3.45-3.4505c0.06411-0.064108 0.14943-0.099461 0.2404-0.099461 0.09051 0 0.17582 0.035354 0.23993 0.099461z" fill="#bdc3c7" stroke-width=".047138"/><polygon transform="matrix(.047138 0 0 .047138 -.0001079 -.32946)" points="32.748 250.07 53.918 271.24 45.428 279.73 13.668 269.15" fill="#ff9"/><path d="m13.383 2.217c0.20788 0.20788 0.22202 0.54586 0.03205 0.77023l-6.6153 7.8183-3.6051-3.6056 7.8178-6.6153c0.22438-0.18949 0.56283-0.17582 0.77024 0.032054zm-1.9774 1.5395c0-0.20269-0.07731-0.40539-0.23145-0.55953l-0.35872-0.35919c-0.1499-0.14943-0.34835-0.23192-0.56-0.23192-0.21165 0-0.41057 0.082492-0.56 0.23192l-3.45 3.4505c-0.14943 0.14943-0.23192 0.34835-0.23192 0.55953 0 0.21165 0.082491 0.41057 0.23192 0.56l0.35919 0.35919c0.15414 0.15414 0.35683 0.23145 0.55953 0.23145 0.20269 0 0.40586-0.077306 0.56-0.23145l3.45-3.4505c0.15414-0.15461 0.23145-0.35731 0.23145-0.56z" fill="#ff9" stroke-width=".047138"/><path d="m13.703 1.8974c0.37286 0.37239 0.39784 0.97953 0.05751 1.3816 0 0-6.7775 8.0097-6.7799 8.0111-0.031111 0.03488-0.073064 0.06034-0.12209 0.07024l-3.2271 0.64532-1.269 1.2694c-0.043367 0.04289-0.10088 0.06599-0.16027 0.06599-0.023569 0-0.047609-0.0038-0.071178-0.01131l-1.9765-0.65899c-0.074478-0.02498-0.13057-0.08626-0.14848-0.16263-0.017912-0.07589 0.0047138-0.15603 0.060337-0.21165l1.9279-1.9279 0.64532-3.2266c0.01037-0.05138 0.037239-0.093805 0.074007-0.12586 4.713e-4 -4.714e-4 8.0073-6.7766 8.0073-6.7766 0.40209-0.34034 1.0092-0.31535 1.3816 0.057508zm-0.28754 1.0898c0.18997-0.22438 0.17582-0.56236-0.03205-0.77023l-1.6003-1.6003c-0.20741-0.20788-0.54586-0.22155-0.77024-0.032054l-7.8178 6.6153 3.6051 3.6056zm-7.0599 8.013-3.3553-3.3558-0.57603 2.8801c-0.00896 0.04337-0.03064 0.08391-0.061751 0.11549l-0.45912 0.45865 0.99791 0.99838 0.45912-0.45912c0.031582-0.03158 0.07165-0.05327 0.11549-0.06222zm-4.2141 1.8563 0.4002-0.4002-0.99791-0.99791-0.89939 0.89939z" fill="#666" stroke-width=".047138"/><path d="m11.174 3.197c0.15414 0.15414 0.23145 0.35683 0.23145 0.55953s-0.07731 0.40539-0.23145 0.56l-3.45 3.4505c-0.15414 0.15414-0.35731 0.23145-0.56 0.23145-0.20269 0-0.40539-0.077306-0.55953-0.23145l-0.35919-0.35919c-0.14943-0.14943-0.23192-0.34835-0.23192-0.56 0-0.21118 0.082491-0.4101 0.23192-0.55953l3.45-3.4505c0.14943-0.14943 0.34835-0.23192 0.56-0.23192 0.21165 0 0.4101 0.082492 0.56 0.23192zm-0.3196 0.79993c0.13246-0.13246 0.13246-0.34788 0-0.48034l-0.35919-0.35919c-0.06411-0.064108-0.14943-0.099461-0.23993-0.099461-0.09098 0-0.1763 0.035354-0.2404 0.099461l-3.45 3.4505c-0.13246 0.13246-0.13246 0.34788 0 0.48034l0.35919 0.35919c0.13246 0.13246 0.34788 0.13246 0.48034 0z" fill="#666" stroke-width=".047138"/>
















</svg>
