<?xml version="1.0" encoding="UTF-8"?>
<svg version="1.1" viewBox="0 0 24 22.021" xml:space="preserve" xmlns="http://www.w3.org/2000/svg" xmlns:cc="http://creativecommons.org/ns#" xmlns:dc="http://purl.org/dc/elements/1.1/" xmlns:rdf="http://www.w3.org/1999/02/22-rdf-syntax-ns#"><metadata><rdf:RDF><cc:Work rdf:about=""><dc:format>image/svg+xml</dc:format><dc:type rdf:resource="http://purl.org/dc/dcmitype/StillImage"/><dc:title/></cc:Work></rdf:RDF></metadata>
<g transform="translate(0 -462.98)" fill="#999">
        <g transform="matrix(.049485 0 0 .049485 0 461.99)">

            <path d="m392.5 65c-17.921 0-32.5 14.58-32.5 32.5s14.579 32.5 32.5 32.5 32.5-14.58 32.5-32.5-14.579-32.5-32.5-32.5zm0 50c-9.649 0-17.5-7.851-17.5-17.5s7.851-17.5 17.5-17.5 17.5 7.851 17.5 17.5-7.851 17.5-17.5 17.5z"/>
            <rect x="57" y="111" width="50" height="15"/>
            <rect x="57" y="81" width="90" height="15"/>
            <rect x="142.5" y="380" width="170" height="15"/>
            <rect x="142.5" y="330" width="200" height="15"/>
            <rect x="142.5" y="280" width="200" height="15"/>
            <rect x="142.5" y="230" width="200" height="15"/>
        </g>
    <path d="m22.639 462.98h-21.278c-0.75033 0-1.3608 0.61044-1.3608 1.3608v10.268h4.2062v10.392h15.588v-10.392h4.2062v-10.268c0-0.75039-0.61049-1.3608-1.3608-1.3608zm-3.5876 21.278h-14.103v-13.113h14.103zm4.2062-10.392h-3.4639v-2.7216h1.3608v-0.74227h-18.309v0.74227h1.3608v2.7216h-3.4639v-9.5258c0-0.3411 0.27746-0.61856 0.61856-0.61856h21.278c0.3411 0 0.61856 0.27746 0.61856 0.61856z" stroke-width=".049485"/></g>















</svg>
