<?xml version="1.0" encoding="UTF-8" standalone="no"?>
<!-- Generator: Adobe Illustrator 15.0.0, SVG Export Plug-In . SVG Version: 6.00 Build 0)  -->

<svg
   xmlns:dc="http://purl.org/dc/elements/1.1/"
   xmlns:cc="http://creativecommons.org/ns#"
   xmlns:rdf="http://www.w3.org/1999/02/22-rdf-syntax-ns#"
   xmlns:svg="http://www.w3.org/2000/svg"
   xmlns="http://www.w3.org/2000/svg"
   xmlns:sodipodi="http://sodipodi.sourceforge.net/DTD/sodipodi-0.dtd"
   xmlns:inkscape="http://www.inkscape.org/namespaces/inkscape"
   version="1.1"
   id="Layer_1"
   x="0px"
   y="0px"
   width="48"
   height="48"
   viewBox="0 0 48.000001 47.999999"
   enable-background="new 0 0 612 792"
   xml:space="preserve"
   sodipodi:docname="logo.svg"
   inkscape:version="0.92.4 (5da689c313, 2019-01-14)"><metadata
   id="metadata68"><rdf:RDF><cc:Work
       rdf:about=""><dc:format>image/svg+xml</dc:format><dc:type
         rdf:resource="http://purl.org/dc/dcmitype/StillImage" /><dc:title></dc:title></cc:Work></rdf:RDF></metadata><defs
   id="defs66" /><sodipodi:namedview
   pagecolor="#ffffff"
   bordercolor="#666666"
   borderopacity="1"
   objecttolerance="10"
   gridtolerance="10"
   guidetolerance="10"
   inkscape:pageopacity="0"
   inkscape:pageshadow="2"
   inkscape:window-width="3840"
   inkscape:window-height="2066"
   id="namedview64"
   showgrid="false"
   fit-margin-top="0"
   fit-margin-left="0"
   fit-margin-right="0"
   fit-margin-bottom="0"
   inkscape:zoom="6.7425132"
   inkscape:cx="117.54195"
   inkscape:cy="-45.658598"
   inkscape:window-x="-11"
   inkscape:window-y="-11"
   inkscape:window-maximized="1"
   inkscape:current-layer="Layer_1" />














<g
   id="g8494"
   transform="matrix(0.74999999,0,0,0.74999999,0,-0.99999952)"><path
     style="fill:#2c2255;stroke-width:0.58608061"
     inkscape:connector-curvature="0"
     id="path2"
     d="M 17.614066,42.317364 H 7.8007321 c 1.2993407,4.457143 3.7104759,8.451868 7.2404409,11.982418 5.627544,5.628131 12.394431,8.438387 20.307691,8.438387 1.581832,0 3.114433,-0.1178 4.603077,-0.34227 5.96044,-0.899634 11.178902,-3.594433 15.650111,-8.096117 3.552821,-3.529378 5.980952,-7.525275 7.290256,-11.982418 H 58.90989 53.086593 Z" /><g
     transform="matrix(0.58608059,0,0,0.58608059,-41.652747,-187.9748)"
     id="g8">
	<path
   style="fill:#2c2255"
   inkscape:connector-curvature="0"
   id="path4"
   d="m 91.891,370.194 h -8.747 c -0.32,1.922 -0.538,3.884 -0.637,5.896 h 10.396 5.215 75.275 6.871 c -0.1,-2.012 -0.318,-3.974 -0.641,-5.896" />
	<path
   style="fill:#2c2255"
   inkscape:connector-curvature="0"
   id="path6"
   d="m 82.507,381.565 c 0.099,2.013 0.316,3.975 0.637,5.896 h 9.094 6.893 73.648 6.846 c 0.322,-1.921 0.542,-3.883 0.642,-5.896" />
</g><path
     style="fill:#2c2255;stroke-width:0.58608061"
     inkscape:connector-curvature="0"
     id="path10"
     d="M 62.89348,25.779341 C 61.585348,21.309892 59.15663,17.296411 55.602052,13.741246 51.142565,9.281759 45.938755,6.606301 39.997656,5.706082 38.494945,5.478096 36.947106,5.358536 35.348864,5.358536 c -7.91326,0 -14.680732,2.795018 -20.307691,8.38271 -3.531137,3.555165 -5.9434446,7.568646 -7.2421991,12.038095" /><g
     transform="matrix(0.58608059,0,0,0.58608059,-41.652747,-187.9748)"
     id="g14">
	<path
   style="fill:#f7941e"
   inkscape:connector-curvature="0"
   id="path12"
   d="m 79.6,378.829 c 0,-25.824 19.395,-47.281 44.626,-51.055 -0.626,-0.023 -1.255,-0.048 -1.887,-0.048 -28.314,0 -51.269,22.88 -51.269,51.103 0,28.224 22.954,51.103 51.269,51.103 0.634,0 1.263,-0.024 1.891,-0.047 C 98.995,426.111 79.6,404.654 79.6,378.829 Z" />
</g><g
     transform="matrix(0.58608059,0,0,0.58608059,-41.652747,-187.9748)"
     id="g53">
	
		<linearGradient
   gradientTransform="matrix(1,0,0,-1,0,793)"
   y2="432.21109"
   x2="131.3853"
   y1="358.5762"
   x1="131.3853"
   gradientUnits="userSpaceOnUse"
   id="SVGID_1_">
		<stop
   id="stop32"
   style="stop-color:#473788"
   offset="0.3033" />
		<stop
   id="stop34"
   style="stop-color:#2C2255"
   offset="0.872" />
	</linearGradient>
	<path
   style="fill:url(#SVGID_1_)"
   inkscape:connector-curvature="0"
   id="path37"
   d="m 164.653,376.089 c -0.164,-2.021 -0.504,-3.992 -1.012,-5.896 h -64.51 c -0.508,1.903 -0.849,3.874 -1.013,5.896 z" />
	
		<linearGradient
   gradientTransform="matrix(1,0,0,-1,0,793)"
   y2="432.21011"
   x2="131.3853"
   y1="358.5752"
   x1="131.3853"
   gradientUnits="userSpaceOnUse"
   id="SVGID_2_">
		<stop
   id="stop39"
   style="stop-color:#473788"
   offset="0.3033" />
		<stop
   id="stop41"
   style="stop-color:#2C2255"
   offset="0.872" />
	</linearGradient>
	<path
   style="fill:url(#SVGID_2_)"
   inkscape:connector-curvature="0"
   id="path44"
   d="M 164.653,381.565 H 98.119 c 0.164,2.021 0.503,3.992 1.012,5.896 h 64.511 c 0.508,-1.904 0.847,-3.875 1.011,-5.896 z" />
	
		<linearGradient
   gradientTransform="matrix(1,0,0,-1,0,793)"
   y2="432.2084"
   x2="131.3853"
   y1="358.57709"
   x1="131.3853"
   gradientUnits="userSpaceOnUse"
   id="SVGID_3_">
		<stop
   id="stop46"
   style="stop-color:#473788"
   offset="0.3033" />
		<stop
   id="stop48"
   style="stop-color:#2C2255"
   offset="0.8631" />
	</linearGradient>
	<path
   style="fill:url(#SVGID_3_)"
   inkscape:connector-curvature="0"
   id="path51"
   d="m 131.386,412.217 c 13.397,0 24.945,-7.893 30.263,-19.281 h -60.526 c 5.318,11.388 16.866,19.281 30.263,19.281 z" />
</g><g
     transform="matrix(0.58608059,0,0,0.58608059,-41.652747,-187.9748)"
     id="g61">
	<path
   style="fill:#ffffff"
   inkscape:connector-curvature="0"
   id="path55"
   d="m 93.188,381.565 h 4.884 66.706 8.763 6.657 c 0.046,-0.871 0.072,-1.748 0.072,-2.631 0,-0.955 -0.035,-1.902 -0.089,-2.845 H 173.54 164.777 98.071 92.842 82.507 c -0.054,0.942 -0.089,1.89 -0.089,2.845 0,0.883 0.026,1.76 0.072,2.631 z" />
	<path
   style="fill:#ffffff"
   inkscape:connector-curvature="0"
   id="path57"
   d="M 100.928,364.718 H 84.376 c -0.544,1.783 -0.895,3.612 -1.232,5.476 h 8.525 7.259 64.679 9.16 6.547 c -0.338,-1.863 -0.773,-3.692 -1.316,-5.476" />
	<path
   style="fill:#ffffff"
   inkscape:connector-curvature="0"
   id="path59"
   d="m 173.026,387.46 h -9.16 -64.678 -6.912 -9.133 c 0.328,1.863 0.701,3.691 1.236,5.476 h 16.807 60.682 9.962 6.488 c 0.534,-1.784 0.965,-3.612 1.294,-5.476 z" />
</g></g></svg>