<?xml version="1.0" encoding="UTF-8" standalone="no"?>
<!-- Generator: Adobe Illustrator 16.0.0, SVG Export Plug-In . SVG Version: 6.00 Build 0)  -->

<svg
   xmlns:dc="http://purl.org/dc/elements/1.1/"
   xmlns:cc="http://creativecommons.org/ns#"
   xmlns:rdf="http://www.w3.org/1999/02/22-rdf-syntax-ns#"
   xmlns:svg="http://www.w3.org/2000/svg"
   xmlns="http://www.w3.org/2000/svg"
   xmlns:sodipodi="http://sodipodi.sourceforge.net/DTD/sodipodi-0.dtd"
   xmlns:inkscape="http://www.inkscape.org/namespaces/inkscape"
   version="1.1"
   id="Capa_1"
   x="0px"
   y="0px"
   width="23.998413"
   height="24"
   viewBox="0 0 23.998413 24"
   xml:space="preserve"
   sodipodi:docname="s.svg"
   inkscape:version="0.92.4 (5da689c313, 2019-01-14)"><metadata
   id="metadata41"><rdf:RDF><cc:Work
       rdf:about=""><dc:format>image/svg+xml</dc:format><dc:type
         rdf:resource="http://purl.org/dc/dcmitype/StillImage" /><dc:title></dc:title></cc:Work></rdf:RDF></metadata><defs
   id="defs39" /><sodipodi:namedview
   pagecolor="#ffffff"
   bordercolor="#666666"
   borderopacity="1"
   objecttolerance="10"
   gridtolerance="10"
   guidetolerance="10"
   inkscape:pageopacity="0"
   inkscape:pageshadow="2"
   inkscape:window-width="3840"
   inkscape:window-height="2066"
   id="namedview37"
   showgrid="false"
   inkscape:zoom="7.8044908"
   inkscape:cx="-70.985772"
   inkscape:cy="15.12025"
   inkscape:window-x="-11"
   inkscape:window-y="-11"
   inkscape:window-maximized="1"
   inkscape:current-layer="Capa_1"
   fit-margin-top="0"
   fit-margin-left="0"
   fit-margin-right="0"
   fit-margin-bottom="0" />
<g
   id="g4"
   transform="matrix(0.79366392,0,0,0.79366392,-7.9366392e-4,-1.9841598e-4)"
   style="fill:#808080">
	<path
   d="m 20.194,3.46 c -4.613,-4.613 -12.121,-4.613 -16.734,0 -4.612,4.614 -4.612,12.121 0,16.735 4.108,4.107 10.506,4.547 15.116,1.34 0.097,0.459 0.319,0.897 0.676,1.254 l 6.718,6.718 c 0.979,0.977 2.561,0.977 3.535,0 0.978,-0.978 0.978,-2.56 0,-3.535 l -6.718,-6.72 C 22.432,18.898 21.993,18.675 21.534,18.578 24.743,13.967 24.303,7.57 20.194,3.46 Z m -2.121,14.614 c -3.444,3.444 -9.049,3.444 -12.492,0 -3.442,-3.444 -3.442,-9.048 0,-12.492 3.443,-3.443 9.048,-3.443 12.492,0 3.444,3.444 3.444,9.048 0,12.492 z"
   id="path2"
   inkscape:connector-curvature="0"
   style="fill:#808080" />
</g>
<g
   id="g6"
   transform="matrix(0.85980258,0,0,0.85980258,-8.5980258e-4,-2.0002151)">
</g>
<g
   id="g8"
   transform="matrix(0.85980258,0,0,0.85980258,-8.5980258e-4,-2.0002151)">
</g>
<g
   id="g10"
   transform="matrix(0.85980258,0,0,0.85980258,-8.5980258e-4,-2.0002151)">
</g>
<g
   id="g12"
   transform="matrix(0.85980258,0,0,0.85980258,-8.5980258e-4,-2.0002151)">
</g>
<g
   id="g14"
   transform="matrix(0.85980258,0,0,0.85980258,-8.5980258e-4,-2.0002151)">
</g>
<g
   id="g16"
   transform="matrix(0.85980258,0,0,0.85980258,-8.5980258e-4,-2.0002151)">
</g>
<g
   id="g18"
   transform="matrix(0.85980258,0,0,0.85980258,-8.5980258e-4,-2.0002151)">
</g>
<g
   id="g20"
   transform="matrix(0.85980258,0,0,0.85980258,-8.5980258e-4,-2.0002151)">
</g>
<g
   id="g22"
   transform="matrix(0.85980258,0,0,0.85980258,-8.5980258e-4,-2.0002151)">
</g>
<g
   id="g24"
   transform="matrix(0.85980258,0,0,0.85980258,-8.5980258e-4,-2.0002151)">
</g>
<g
   id="g26"
   transform="matrix(0.85980258,0,0,0.85980258,-8.5980258e-4,-2.0002151)">
</g>
<g
   id="g28"
   transform="matrix(0.85980258,0,0,0.85980258,-8.5980258e-4,-2.0002151)">
</g>
<g
   id="g30"
   transform="matrix(0.85980258,0,0,0.85980258,-8.5980258e-4,-2.0002151)">
</g>
<g
   id="g32"
   transform="matrix(0.85980258,0,0,0.85980258,-8.5980258e-4,-2.0002151)">
</g>
<g
   id="g34"
   transform="matrix(0.85980258,0,0,0.85980258,-8.5980258e-4,-2.0002151)">
</g>
</svg>