<?xml version="1.0" encoding="UTF-8" standalone="no"?>
<!-- Generator: Adobe Illustrator 16.0.0, SVG Export Plug-In . SVG Version: 6.00 Build 0)  -->

<svg
   xmlns:dc="http://purl.org/dc/elements/1.1/"
   xmlns:cc="http://creativecommons.org/ns#"
   xmlns:rdf="http://www.w3.org/1999/02/22-rdf-syntax-ns#"
   xmlns:svg="http://www.w3.org/2000/svg"
   xmlns="http://www.w3.org/2000/svg"
   xmlns:sodipodi="http://sodipodi.sourceforge.net/DTD/sodipodi-0.dtd"
   xmlns:inkscape="http://www.inkscape.org/namespaces/inkscape"
   version="1.1"
   id="Capa_1"
   x="0px"
   y="0px"
   width="23.998413"
   height="24"
   viewBox="0 0 23.998413 24"
   xml:space="preserve"
   sodipodi:docname="s_h.svg"
   inkscape:version="0.92.4 (5da689c313, 2019-01-14)"><metadata
   id="metadata41"><rdf:RDF><cc:Work
       rdf:about=""><dc:format>image/svg+xml</dc:format><dc:type
         rdf:resource="http://purl.org/dc/dcmitype/StillImage" /><dc:title /></cc:Work></rdf:RDF></metadata><defs
   id="defs39">
	
</defs><sodipodi:namedview
   pagecolor="#ffffff"
   bordercolor="#666666"
   borderopacity="1"
   objecttolerance="10"
   gridtolerance="10"
   guidetolerance="10"
   inkscape:pageopacity="0"
   inkscape:pageshadow="2"
   inkscape:window-width="3840"
   inkscape:window-height="2066"
   id="namedview37"
   showgrid="false"
   inkscape:zoom="7.8044908"
   inkscape:cx="-157.09005"
   inkscape:cy="15.12025"
   inkscape:window-x="3829"
   inkscape:window-y="-11"
   inkscape:window-maximized="1"
   inkscape:current-layer="Capa_1"
   fit-margin-top="0"
   fit-margin-left="0"
   fit-margin-right="0"
   fit-margin-bottom="0" />
<path
   style="fill:#333333;stroke-width:0.79366392;fill-opacity:1"
   inkscape:connector-curvature="0"
   id="path2"
   d="m 16.026456,2.7458787 c -3.661172,-3.66117162 -9.6200008,-3.66117162 -13.2811725,0 -3.660378,3.6619654 -3.660378,9.6200003 0,13.2819653 3.2603714,3.259578 8.3382335,3.60879 11.9970235,1.06351 0.07699,0.364292 0.253179,0.711917 0.536517,0.995255 l 5.331834,5.331834 c 0.776997,0.77541 2.032574,0.77541 2.805602,0 0.776204,-0.776203 0.776204,-2.03178 0,-2.805602 L 18.084426,15.279419 C 17.802675,14.998462 17.454257,14.821475 17.089965,14.74449 19.636833,11.084906 19.287621,6.0078375 16.026456,2.7458787 Z M 14.343094,14.344483 c -2.733378,2.733379 -7.1818644,2.733379 -9.9144493,0 -2.7317912,-2.733378 -2.7317912,-7.1810709 0,-9.9144494 2.7325849,-2.7325849 7.1810713,-2.7325849 9.9144493,0 2.733379,2.7333785 2.733379,7.1810714 0,9.9144494 z" />
<g
   id="g6"
   transform="matrix(0.85980258,0,0,0.85980258,-8.5980258e-4,-2.0002151)">
</g>
<g
   id="g8"
   transform="matrix(0.85980258,0,0,0.85980258,-8.5980258e-4,-2.0002151)">
</g>
<g
   id="g10"
   transform="matrix(0.85980258,0,0,0.85980258,-8.5980258e-4,-2.0002151)">
</g>
<g
   id="g12"
   transform="matrix(0.85980258,0,0,0.85980258,-8.5980258e-4,-2.0002151)">
</g>
<g
   id="g14"
   transform="matrix(0.85980258,0,0,0.85980258,-8.5980258e-4,-2.0002151)">
</g>
<g
   id="g16"
   transform="matrix(0.85980258,0,0,0.85980258,-8.5980258e-4,-2.0002151)">
</g>
<g
   id="g18"
   transform="matrix(0.85980258,0,0,0.85980258,-8.5980258e-4,-2.0002151)">
</g>
<g
   id="g20"
   transform="matrix(0.85980258,0,0,0.85980258,-8.5980258e-4,-2.0002151)">
</g>
<g
   id="g22"
   transform="matrix(0.85980258,0,0,0.85980258,-8.5980258e-4,-2.0002151)">
</g>
<g
   id="g24"
   transform="matrix(0.85980258,0,0,0.85980258,-8.5980258e-4,-2.0002151)">
</g>
<g
   id="g26"
   transform="matrix(0.85980258,0,0,0.85980258,-8.5980258e-4,-2.0002151)">
</g>
<g
   id="g28"
   transform="matrix(0.85980258,0,0,0.85980258,-8.5980258e-4,-2.0002151)">
</g>
<g
   id="g30"
   transform="matrix(0.85980258,0,0,0.85980258,-8.5980258e-4,-2.0002151)">
</g>
<g
   id="g32"
   transform="matrix(0.85980258,0,0,0.85980258,-8.5980258e-4,-2.0002151)">
</g>
<g
   id="g34"
   transform="matrix(0.85980258,0,0,0.85980258,-8.5980258e-4,-2.0002151)">
</g>
</svg>